<svg xmlns="http://www.w3.org/2000/svg" viewBox="0 0 512 512" width="512" height="512">
  <!-- Generic colorful stand-in shown wherever media was deleted along with
       its owner's account. Seeded by the demo-stage scaffold; referenced by
       StudioService.delete_user via PLACEHOLDER_FILE_LOCATION. -->
  <defs>
    <linearGradient id="bg" x1="0" y1="0" x2="1" y2="1">
      <stop offset="0%" stop-color="#e040fb"/>
      <stop offset="50%" stop-color="#ff9100"/>
      <stop offset="100%" stop-color="#00bfa5"/>
    </linearGradient>
    <radialGradient id="glow" cx="0.5" cy="0.45" r="0.6">
      <stop offset="0%" stop-color="#ffffff" stop-opacity="0.9"/>
      <stop offset="100%" stop-color="#ffffff" stop-opacity="0"/>
    </radialGradient>
  </defs>
  <path d="M256 16
           L301 118 L400 70 L382 180 L492 196 L410 272 L496 344 L386 360
           L412 470 L308 428 L256 496 L204 428 L100 470 L126 360 L16 344
           L102 272 L20 196 L130 180 L112 70 L211 118 Z"
        fill="url(#bg)" stroke="#4a148c" stroke-width="10" stroke-linejoin="round"/>
  <circle cx="256" cy="248" r="118" fill="url(#glow)"/>
  <circle cx="256" cy="248" r="104" fill="#ffffff" fill-opacity="0.85"/>
  <text x="256" y="292" text-anchor="middle"
        font-family="Georgia, 'Times New Roman', serif" font-size="150"
        font-weight="bold" fill="#6a1b9a">?</text>
  <ellipse cx="215" cy="180" rx="26" ry="14" fill="#ffffff" fill-opacity="0.7"
           transform="rotate(-25 215 180)"/>
</svg>
